<svg xmlns="http://www.w3.org/2000/svg" width="100" height="100" viewBox="0 0 100 100">
  <g id="Group_Clock" data-name="Group Clock" transform="translate(-309 -778)">
    <circle id="Ellipse_Clock" data-name="Ellipse Clock" cx="50" cy="50" r="50" transform="translate(309 778)" fill="#fff5df"/>
    <g id="Clock_Icon" data-name="Clock Icon" transform="translate(332 801)">
      <path d="M8 3.5a.5.5 0 0 1 .5.5v4h3a.5.5 0 0 1 0 1h-3.5a.5.5 0 0 1-.5-.5v-4a.5.5 0 0 1 .5-.5z" fill="#fac14d"/>
      <path d="M8 16A8 8 0 1 0 8 0a8 8 0 0 0 0 16zm0-1A7 7 0 1 1 8 1a7 7 0 0 1 0 14z" fill="#fac14d"/>
    </g>
  </g>
</svg>